<svg width="100" height="72" viewBox="0 0 100 72" fill="none" xmlns="http://www.w3.org/2000/svg">
<path d="M79.1458 28.6458C78.6042 13.0375 65.7417 0.5 50 0.5C34.2583 0.5 21.3958 13.0375 20.8542 28.6458C3.71667 34.1417 0 41.8375 0 47.4667C0 61.075 21.4958 71.3333 50 71.3333C78.5042 71.3333 100 61.075 100 47.4667C100 41.8333 96.2833 34.1417 79.1458 28.6417V28.6458ZM29.1667 29.6667C29.1667 18.1792 38.5125 8.83333 50 8.83333C61.4875 8.83333 70.8333 18.1792 70.8333 29.6667V30.225C68.3917 31.5083 62.2708 33.8333 50 33.8333C37.6583 33.8333 31.5375 31.4833 29.1667 30.2458V29.6667ZM50 63C26.15 63 8.33333 54.8 8.33333 47.4667C8.33333 43.6 13.9542 39.5875 23.5125 36.5417C26.4417 38.5083 34.0375 42.1667 50 42.1667C65.9625 42.1667 73.5583 38.5083 76.4875 36.5417C86.0458 39.5875 91.6667 43.6 91.6667 47.4667C91.6667 54.8 73.85 63 50 63ZM56.25 52.5833C56.25 56.0333 53.45 58.8333 50 58.8333C46.55 58.8333 43.75 56.0333 43.75 52.5833C43.75 49.1333 46.55 46.3333 50 46.3333C53.45 46.3333 56.25 49.1333 56.25 52.5833ZM33.3333 48.4167C33.3333 51.8667 30.5333 54.6667 27.0833 54.6667C23.6333 54.6667 20.8333 51.8667 20.8333 48.4167C20.8333 44.9667 23.6333 42.1667 27.0833 42.1667C30.5333 42.1667 33.3333 44.9667 33.3333 48.4167ZM79.1667 48.4167C79.1667 51.8667 76.3667 54.6667 72.9167 54.6667C69.4667 54.6667 66.6667 51.8667 66.6667 48.4167C66.6667 44.9667 69.4667 42.1667 72.9167 42.1667C76.3667 42.1667 79.1667 44.9667 79.1667 48.4167Z" fill="#007BAD"/>
</svg>
