<svg width="100" height="100" viewBox="0 0 100 100" fill="none" xmlns="http://www.w3.org/2000/svg">
<path d="M75 35.4167C75 38.1793 73.9026 40.8289 71.9491 42.7824C69.9956 44.7359 67.346 45.8333 64.5834 45.8333C61.8207 45.8333 59.1712 44.7359 57.2177 42.7824C55.2642 40.8289 54.1667 38.1793 54.1667 35.4167C54.1667 32.654 55.2642 30.0045 57.2177 28.051C59.1712 26.0975 61.8207 25 64.5834 25C67.346 25 69.9956 26.0975 71.9491 28.051C73.9026 30.0045 75 32.654 75 35.4167ZM74.975 64.025C74.7462 70.6453 73.0934 77.1385 70.1292 83.0625C67.3981 88.2274 63.2972 92.5403 58.2764 95.5281C53.2556 98.5159 47.5089 100.063 41.6667 100H37.5V77.0833C37.4814 73.2213 35.939 69.5228 33.2081 66.7919C30.4772 64.0611 26.7787 62.5186 22.9167 62.5H3.25739e-05V58.3333C-0.0630438 52.4911 1.48417 46.7444 4.47195 41.7237C7.45973 36.7029 11.7726 32.602 16.9375 29.8708C22.8616 26.9067 29.3548 25.2539 35.975 25.025C42.0452 17.1843 49.8407 10.8481 58.7563 6.50805C67.6719 2.16804 77.4677 -0.0589331 87.3834 1.11664e-05C89.0333 -0.0104147 90.6691 0.30494 92.1969 0.927994C93.7247 1.55105 95.1145 2.46955 96.2867 3.63083C97.4588 4.79211 98.3902 6.17333 99.0274 7.69529C99.6646 9.21726 99.9951 10.85 100 12.5C100.071 22.4342 97.8495 32.2509 93.5093 41.1872C89.1691 50.1234 82.8267 57.9385 74.975 64.025ZM8.68337 54.1667H18.1084C21.2027 47.275 24.8377 40.639 28.9792 34.3208C26.1026 34.9901 23.3152 35.9971 20.675 37.3208C17.4998 38.9976 14.7613 41.3946 12.6789 44.3199C10.5966 47.2452 9.22817 50.6175 8.68337 54.1667ZM65.6792 71.0208C59.3611 75.1624 52.7251 78.7973 45.8334 81.8917V91.3167C49.3826 90.7719 52.7549 89.4035 55.6802 87.3211C58.6055 85.2387 61.0025 82.5003 62.6792 79.325C64.003 76.6849 65.01 73.8975 65.6792 71.0208ZM91.6667 12.3833C91.6363 11.2986 91.184 10.2685 90.4058 9.5122C89.6277 8.75585 88.5852 8.33292 87.5 8.33334C66 8.94584 51.4584 17.1833 37.425 36.7583C33.509 42.3967 30.0653 48.3489 27.1292 54.5542C31.6789 55.4015 35.8654 57.6065 39.1378 60.8789C42.4102 64.1513 44.6152 68.3378 45.4625 72.8875C51.6678 69.9514 57.62 66.5077 63.2584 62.5917C82.8167 48.5417 91.0542 34 91.6667 12.3833ZM25.5084 74.4958C27.8366 76.848 29.1425 80.0238 29.1425 83.3333C29.1425 86.6429 27.8366 89.8187 25.5084 92.1708C21.7292 95.9458 10.4167 98.275 5.72503 99.1042L-0.133301 100.133L0.895866 94.275C1.7292 89.5833 4.0542 78.2708 7.8292 74.4917C10.2115 72.2194 13.3775 70.9521 16.6696 70.9529C19.9618 70.9537 23.1272 72.2225 25.5084 74.4958ZM20.8334 83.3333C20.8349 82.786 20.7277 82.2438 20.5181 81.7381C20.3086 81.2324 20.0008 80.7734 19.6125 80.3875C18.8312 79.6064 17.7716 79.1676 16.6667 79.1676C15.5618 79.1676 14.5022 79.6064 13.7209 80.3875C12.1323 83.2552 11.0166 86.3604 10.4167 89.5833C13.6409 88.9809 16.7472 87.8639 19.6167 86.275C20.0037 85.8893 20.3104 85.4308 20.5193 84.9259C20.7281 84.421 20.8348 83.8797 20.8334 83.3333Z" fill="#007BAD"/>
</svg>
