<svg width="32" height="32" viewBox="0 0 32 32" fill="none" xmlns="http://www.w3.org/2000/svg">
<path d="M24 18.6667C22.5273 18.6667 21.3334 17.4728 21.3334 16C21.3334 14.5273 22.5273 13.3334 24 13.3334C25.4728 13.3334 26.6667 14.5273 26.6667 16C26.6667 16.7073 26.3858 17.3856 25.8857 17.8857C25.3856 18.3858 24.7073 18.6667 24 18.6667ZM16 18.6667C14.5273 18.6667 13.3334 17.4728 13.3334 16C13.3334 14.5273 14.5273 13.3334 16 13.3334C17.4728 13.3334 18.6667 14.5273 18.6667 16C18.6667 16.7073 18.3858 17.3856 17.8857 17.8857C17.3856 18.3858 16.7073 18.6667 16 18.6667ZM8.00004 18.6667C6.52728 18.6667 5.33337 17.4728 5.33337 16C5.33337 14.5273 6.52728 13.3334 8.00004 13.3334C9.4728 13.3334 10.6667 14.5273 10.6667 16C10.6667 16.7073 10.3858 17.3856 9.88566 17.8857C9.38556 18.3858 8.70728 18.6667 8.00004 18.6667Z" fill="#0F1828"/>
</svg>
